<mxfile host="app.diagrams.net" agent="Mozilla/5.0 (Windows NT 10.0; Win64; x64) AppleWebKit/537.36 (KHTML, like Gecko) Chrome/129.0.0.0 Safari/537.36" version="24.7.17">
  <diagram name="Page-1" id="aXbHCcGOJ9cBw4T82wod">
    <mxGraphModel dx="607" dy="772" grid="1" gridSize="10" guides="1" tooltips="1" connect="1" arrows="1" fold="1" page="1" pageScale="1" pageWidth="827" pageHeight="1169" math="0" shadow="0">
      <root>
        <mxCell id="0" />
        <mxCell id="1" parent="0" />
        <mxCell id="Ysm30mxPzNln4FoJBmA9-29" value="" style="shape=folder;fontStyle=1;spacingTop=10;tabWidth=40;tabHeight=14;tabPosition=left;html=1;whiteSpace=wrap;" vertex="1" parent="1">
          <mxGeometry x="1260" y="757" width="260" height="150" as="geometry" />
        </mxCell>
        <mxCell id="Ysm30mxPzNln4FoJBmA9-30" value="PostgreSQL" style="verticalAlign=top;align=left;spacingTop=8;spacingLeft=2;spacingRight=12;shape=cube;size=10;direction=south;fontStyle=4;html=1;whiteSpace=wrap;" vertex="1" parent="1">
          <mxGeometry x="1300" y="817" width="140" height="70" as="geometry" />
        </mxCell>
        <mxCell id="Ysm30mxPzNln4FoJBmA9-31" value="&lt;font style=&quot;font-size: 12px;&quot;&gt;&lt;b&gt;&lt;i&gt;Servidor Local&lt;/i&gt;&lt;/b&gt;&lt;/font&gt;" style="text;html=1;align=center;verticalAlign=middle;whiteSpace=wrap;rounded=0;" vertex="1" parent="1">
          <mxGeometry x="1270" y="777" width="60" height="30" as="geometry" />
        </mxCell>
        <mxCell id="Ysm30mxPzNln4FoJBmA9-32" value="" style="shape=folder;fontStyle=1;spacingTop=10;tabWidth=40;tabHeight=14;tabPosition=left;html=1;whiteSpace=wrap;" vertex="1" parent="1">
          <mxGeometry x="870" y="747" width="290" height="160" as="geometry" />
        </mxCell>
        <mxCell id="Ysm30mxPzNln4FoJBmA9-33" value="&lt;font style=&quot;font-size: 12px;&quot;&gt;&lt;b&gt;&lt;i&gt;Usuario&lt;/i&gt;&lt;/b&gt;&lt;/font&gt;" style="text;html=1;align=center;verticalAlign=middle;whiteSpace=wrap;rounded=0;" vertex="1" parent="1">
          <mxGeometry x="875" y="767" width="60" height="30" as="geometry" />
        </mxCell>
        <mxCell id="Ysm30mxPzNln4FoJBmA9-34" value="Navegador Web" style="verticalAlign=top;align=left;spacingTop=8;spacingLeft=2;spacingRight=12;shape=cube;size=10;direction=south;fontStyle=4;html=1;whiteSpace=wrap;" vertex="1" parent="1">
          <mxGeometry x="945" y="807" width="140" height="70" as="geometry" />
        </mxCell>
        <mxCell id="Ysm30mxPzNln4FoJBmA9-35" value="" style="shape=folder;fontStyle=1;spacingTop=10;tabWidth=40;tabHeight=14;tabPosition=left;html=1;whiteSpace=wrap;" vertex="1" parent="1">
          <mxGeometry x="1280" y="262" width="260" height="220" as="geometry" />
        </mxCell>
        <mxCell id="Ysm30mxPzNln4FoJBmA9-36" value="Express" style="verticalAlign=top;align=left;spacingTop=8;spacingLeft=2;spacingRight=12;shape=cube;size=10;direction=south;fontStyle=4;html=1;whiteSpace=wrap;" vertex="1" parent="1">
          <mxGeometry x="1340" y="312" width="140" height="70" as="geometry" />
        </mxCell>
        <mxCell id="Ysm30mxPzNln4FoJBmA9-37" value="Node.js" style="verticalAlign=top;align=left;spacingTop=8;spacingLeft=2;spacingRight=12;shape=cube;size=10;direction=south;fontStyle=4;html=1;whiteSpace=wrap;" vertex="1" parent="1">
          <mxGeometry x="1340" y="402" width="140" height="70" as="geometry" />
        </mxCell>
        <mxCell id="Ysm30mxPzNln4FoJBmA9-38" value="&lt;b&gt;&lt;i&gt;Backend&lt;/i&gt;&lt;/b&gt;" style="text;html=1;align=center;verticalAlign=middle;whiteSpace=wrap;rounded=0;" vertex="1" parent="1">
          <mxGeometry x="1285" y="282" width="60" height="30" as="geometry" />
        </mxCell>
        <mxCell id="Ysm30mxPzNln4FoJBmA9-39" value="" style="shape=folder;fontStyle=1;spacingTop=10;tabWidth=40;tabHeight=14;tabPosition=left;html=1;whiteSpace=wrap;" vertex="1" parent="1">
          <mxGeometry x="900" y="287" width="260" height="150" as="geometry" />
        </mxCell>
        <mxCell id="Ysm30mxPzNln4FoJBmA9-40" value="PÃ¡gina Web Nexus" style="verticalAlign=top;align=left;spacingTop=8;spacingLeft=2;spacingRight=12;shape=cube;size=10;direction=south;fontStyle=4;html=1;whiteSpace=wrap;" vertex="1" parent="1">
          <mxGeometry x="920" y="337" width="140" height="70" as="geometry" />
        </mxCell>
        <mxCell id="Ysm30mxPzNln4FoJBmA9-41" value="&lt;b&gt;&lt;i&gt;Local&lt;/i&gt;&lt;/b&gt;" style="text;html=1;align=center;verticalAlign=middle;whiteSpace=wrap;rounded=0;" vertex="1" parent="1">
          <mxGeometry x="900" y="307" width="60" height="30" as="geometry" />
        </mxCell>
        <mxCell id="Ysm30mxPzNln4FoJBmA9-44" value="" style="endArrow=none;dashed=1;html=1;rounded=0;entryX=0;entryY=0;entryDx=70;entryDy=75;entryPerimeter=0;exitX=0.071;exitY=0.543;exitDx=0;exitDy=0;exitPerimeter=0;" edge="1" parent="1" source="Ysm30mxPzNln4FoJBmA9-37" target="Ysm30mxPzNln4FoJBmA9-36">
          <mxGeometry width="50" height="50" relative="1" as="geometry">
            <mxPoint x="1205" y="372" as="sourcePoint" />
            <mxPoint x="1255" y="322" as="targetPoint" />
          </mxGeometry>
        </mxCell>
        <mxCell id="Ysm30mxPzNln4FoJBmA9-48" value="" style="shape=folder;fontStyle=1;spacingTop=10;tabWidth=40;tabHeight=14;tabPosition=left;html=1;whiteSpace=wrap;" vertex="1" parent="1">
          <mxGeometry x="1020" y="512" width="400" height="190" as="geometry" />
        </mxCell>
        <mxCell id="Ysm30mxPzNln4FoJBmA9-49" value="&lt;b&gt;&lt;i&gt;MVC&lt;/i&gt;&lt;/b&gt;" style="text;html=1;align=center;verticalAlign=middle;whiteSpace=wrap;rounded=0;" vertex="1" parent="1">
          <mxGeometry x="1020" y="527" width="60" height="30" as="geometry" />
        </mxCell>
        <mxCell id="Ysm30mxPzNln4FoJBmA9-69" value="Model" style="verticalAlign=top;align=left;spacingTop=8;spacingLeft=2;spacingRight=12;shape=cube;size=10;direction=south;fontStyle=4;html=1;whiteSpace=wrap;" vertex="1" parent="1">
          <mxGeometry x="1255" y="627" width="90" height="50" as="geometry" />
        </mxCell>
        <mxCell id="Ysm30mxPzNln4FoJBmA9-70" value="View" style="verticalAlign=top;align=left;spacingTop=8;spacingLeft=2;spacingRight=12;shape=cube;size=10;direction=south;fontStyle=4;html=1;whiteSpace=wrap;" vertex="1" parent="1">
          <mxGeometry x="1060" y="627" width="90" height="50" as="geometry" />
        </mxCell>
        <mxCell id="Ysm30mxPzNln4FoJBmA9-71" value="Controller" style="verticalAlign=top;align=left;spacingTop=8;spacingLeft=2;spacingRight=12;shape=cube;size=10;direction=south;fontStyle=4;html=1;whiteSpace=wrap;" vertex="1" parent="1">
          <mxGeometry x="1160" y="547" width="90" height="50" as="geometry" />
        </mxCell>
        <mxCell id="Ysm30mxPzNln4FoJBmA9-72" value="" style="endArrow=none;dashed=1;html=1;rounded=0;entryX=0;entryY=0;entryDx=50;entryDy=50;entryPerimeter=0;exitX=0;exitY=0;exitDx=0;exitDy=40;exitPerimeter=0;startArrow=none;startFill=0;" edge="1" parent="1" source="Ysm30mxPzNln4FoJBmA9-70" target="Ysm30mxPzNln4FoJBmA9-71">
          <mxGeometry width="50" height="50" relative="1" as="geometry">
            <mxPoint x="1040" y="577" as="sourcePoint" />
            <mxPoint x="1180" y="427" as="targetPoint" />
          </mxGeometry>
        </mxCell>
        <mxCell id="Ysm30mxPzNln4FoJBmA9-73" value="" style="endArrow=none;dashed=1;html=1;rounded=0;entryX=0;entryY=0;entryDx=50;entryDy=50;entryPerimeter=0;exitX=0;exitY=0;exitDx=0;exitDy=40;exitPerimeter=0;startArrow=none;startFill=0;" edge="1" parent="1" source="Ysm30mxPzNln4FoJBmA9-69" target="Ysm30mxPzNln4FoJBmA9-71">
          <mxGeometry width="50" height="50" relative="1" as="geometry">
            <mxPoint x="1120" y="637" as="sourcePoint" />
            <mxPoint x="1210" y="607" as="targetPoint" />
          </mxGeometry>
        </mxCell>
        <mxCell id="Ysm30mxPzNln4FoJBmA9-76" value="" style="endArrow=none;dashed=1;html=1;rounded=0;exitX=0;exitY=0;exitDx=0;exitDy=65;exitPerimeter=0;startArrow=classic;startFill=1;entryX=0;entryY=0;entryDx=50;entryDy=50;entryPerimeter=0;" edge="1" parent="1" target="Ysm30mxPzNln4FoJBmA9-69">
          <mxGeometry width="50" height="50" relative="1" as="geometry">
            <mxPoint x="1385" y="827" as="sourcePoint" />
            <mxPoint x="1305" y="687" as="targetPoint" />
          </mxGeometry>
        </mxCell>
        <mxCell id="Ysm30mxPzNln4FoJBmA9-78" value="" style="endArrow=none;dashed=1;html=1;rounded=0;entryX=0;entryY=0;entryDx=50;entryDy=50;entryPerimeter=0;exitX=0;exitY=0;exitDx=0;exitDy=65;exitPerimeter=0;startArrow=classic;startFill=1;" edge="1" parent="1" source="Ysm30mxPzNln4FoJBmA9-34" target="Ysm30mxPzNln4FoJBmA9-70">
          <mxGeometry width="50" height="50" relative="1" as="geometry">
            <mxPoint x="1140" y="827" as="sourcePoint" />
            <mxPoint x="1060" y="687" as="targetPoint" />
          </mxGeometry>
        </mxCell>
        <mxCell id="Ysm30mxPzNln4FoJBmA9-79" value="" style="endArrow=none;dashed=1;html=1;rounded=0;entryX=0;entryY=0;entryDx=70;entryDy=75;entryPerimeter=0;startArrow=classic;startFill=1;exitX=0.293;exitY=0.084;exitDx=0;exitDy=0;exitPerimeter=0;" edge="1" parent="1" source="Ysm30mxPzNln4FoJBmA9-48" target="Ysm30mxPzNln4FoJBmA9-40">
          <mxGeometry width="50" height="50" relative="1" as="geometry">
            <mxPoint x="1090" y="487" as="sourcePoint" />
            <mxPoint x="935" y="477" as="targetPoint" />
          </mxGeometry>
        </mxCell>
        <mxCell id="Ysm30mxPzNln4FoJBmA9-80" value="" style="endArrow=none;dashed=1;html=1;rounded=0;entryX=0;entryY=0;entryDx=70;entryDy=75;entryPerimeter=0;startArrow=classic;startFill=1;exitX=0.65;exitY=0.074;exitDx=0;exitDy=0;exitPerimeter=0;" edge="1" parent="1" source="Ysm30mxPzNln4FoJBmA9-48" target="Ysm30mxPzNln4FoJBmA9-37">
          <mxGeometry width="50" height="50" relative="1" as="geometry">
            <mxPoint x="1220" y="477" as="sourcePoint" />
            <mxPoint x="1460" y="547" as="targetPoint" />
          </mxGeometry>
        </mxCell>
      </root>
    </mxGraphModel>
  </diagram>
</mxfile>
